<?xml version="1.0" standalone="no"?>
<!DOCTYPE svg PUBLIC "-//W3C//DTD SVG 20010904//EN"
 "http://www.w3.org/TR/2001/REC-SVG-20010904/DTD/svg10.dtd">
<svg version="1.0" xmlns="http://www.w3.org/2000/svg"
 width="512.000000pt" height="512.000000pt" viewBox="0 0 512.000000 512.000000"
 preserveAspectRatio="xMidYMid meet">
<metadata>
Created by potrace 1.11, written by Peter Selinger 2001-2013
</metadata>
<g transform="translate(0.000000,512.000000) scale(0.100000,-0.100000)"
fill="#000000" stroke="none">
<path d="M366 5109 c-164 -39 -317 -193 -355 -359 -15 -63 -15 -4317 0 -4380
39 -168 191 -320 359 -359 63 -15 4317 -15 4380 0 168 39 320 191 359 359 15
63 15 4317 0 4380 -39 168 -191 320 -359 359 -58 13 -4327 13 -4384 0z m2544
-174 c511 -76 977 -311 1345 -680 370 -369 602 -830 681 -1350 26 -168 26
-522 0 -690 -79 -520 -311 -981 -681 -1350 -369 -370 -830 -602 -1350 -681
-168 -26 -522 -26 -690 0 -520 79 -981 311 -1350 681 -370 369 -605 835 -682
1350 -25 169 -24 524 1 690 79 521 311 981 681 1350 395 396 889 632 1455 694
125 14 455 6 590 -14z"/>
<path d="M2512 3630 c-194 -51 -374 -207 -448 -388 -20 -50 -26 -56 -76 -76
-127 -52 -267 -179 -329 -301 -30 -58 -38 -67 -74 -76 -22 -6 -78 -29 -125
-51 -69 -33 -101 -57 -171 -127 -145 -145 -206 -302 -197 -505 9 -178 74 -323
199 -446 112 -111 240 -171 402 -191 53 -6 371 -9 863 -6 871 4 838 1 1001 77
193 90 314 210 402 402 111 240 100 502 -32 738 -50 90 -194 239 -279 289 -69
40 -154 75 -233 95 -32 9 -60 17 -62 19 -2 2 -10 31 -19 63 -92 358 -465 577
-822 484z"/>
</g>
</svg>
